<?xml version="1.0" encoding="UTF-8" standalone="no"?>
<!-- Created with Inkscape (http://www.inkscape.org/) -->

<svg
   xmlns:dc="http://purl.org/dc/elements/1.1/"
   xmlns:cc="http://creativecommons.org/ns#"
   xmlns:rdf="http://www.w3.org/1999/02/22-rdf-syntax-ns#"
   xmlns:svg="http://www.w3.org/2000/svg"
   xmlns="http://www.w3.org/2000/svg"
   xmlns:sodipodi="http://sodipodi.sourceforge.net/DTD/sodipodi-0.dtd"
   xmlns:inkscape="http://www.inkscape.org/namespaces/inkscape"
   width="45"
   height="45"
   viewBox="0 0 11.90625 11.90625"
   version="1.1"
   id="svg8"
   inkscape:version="0.91+devel r"
   sodipodi:docname="chat-icon-white.svg">
  <defs
     id="defs2" />
  <sodipodi:namedview
     id="base"
     pagecolor="#ffffff"
     bordercolor="#666666"
     borderopacity="1.0"
     inkscape:pageopacity="0.0"
     inkscape:pageshadow="2"
     inkscape:zoom="8"
     inkscape:cx="44.235343"
     inkscape:cy="44.733695"
     inkscape:document-units="mm"
     inkscape:current-layer="layer1"
     showgrid="false"
     units="px"
     inkscape:window-width="1869"
     inkscape:window-height="1056"
     inkscape:window-x="51"
     inkscape:window-y="24"
     inkscape:window-maximized="1" />
  <metadata
     id="metadata5">
    <rdf:RDF>
      <cc:Work
         rdf:about="">
        <dc:format>image/svg+xml</dc:format>
        <dc:type
           rdf:resource="http://purl.org/dc/dcmitype/StillImage" />
        <dc:title></dc:title>
      </cc:Work>
    </rdf:RDF>
  </metadata>
  <g
     inkscape:label="Layer 1"
     inkscape:groupmode="layer"
     id="layer1"
     transform="translate(0,-285.09373)">
    <path
       style="fill:#ffffff;fill-opacity:1;stroke:none;stroke-width:14.8734169;stroke-miterlimit:4;stroke-dasharray:none;stroke-opacity:1"
       d="M 17.994141 11.412109 A 14.836615 14.836615 0 0 0 3.15625 26.25 A 14.836615 14.836615 0 0 0 17.994141 41.085938 A 14.836615 14.836615 0 0 0 27.855469 37.310547 L 38.259766 40.958984 C 35.401454 38.61293 33.268501 35.112995 31.794922 31.65625 A 14.836615 14.836615 0 0 0 32.830078 26.25 A 14.836615 14.836615 0 0 0 17.994141 11.412109 z "
       transform="matrix(0.26458333,0,0,0.26458333,0,285.09373)"
       id="path4165" />
    <path
       style="fill:#ffffff;fill-opacity:1;stroke:none;stroke-width:2.66257858;stroke-miterlimit:4;stroke-dasharray:none;stroke-opacity:1"
       d="m 8.3468559,286.03036 a 2.6559909,2.6559909 0 0 0 -2.563151,1.97353 3.925521,3.925521 0 0 1 3.0866331,3.28352 2.6559909,2.6559909 0 0 0 2.132687,-2.60088 2.6559909,2.6559909 0 0 0 -2.6561691,-2.65617 z"
       id="path4165-1"
       inkscape:connector-curvature="0" />
  </g>
</svg>
