<?xml version="1.0" encoding="UTF-8" standalone="no"?>
<!-- Created with Inkscape (http://www.inkscape.org/) -->

<svg
   xmlns:dc="http://purl.org/dc/elements/1.1/"
   xmlns:cc="http://creativecommons.org/ns#"
   xmlns:rdf="http://www.w3.org/1999/02/22-rdf-syntax-ns#"
   xmlns:svg="http://www.w3.org/2000/svg"
   xmlns="http://www.w3.org/2000/svg"
   xmlns:sodipodi="http://sodipodi.sourceforge.net/DTD/sodipodi-0.dtd"
   xmlns:inkscape="http://www.inkscape.org/namespaces/inkscape"
   width="272.70593"
   height="275.19449"
   id="svg2"
   version="1.1"
   inkscape:version="0.48.3.1 r9886"
   sodipodi:docname="gear.svg">
  <sodipodi:namedview
     id="base"
     pagecolor="#ffffff"
     bordercolor="#666666"
     borderopacity="1.0"
     inkscape:pageopacity="0.0"
     inkscape:pageshadow="2"
     inkscape:zoom="0.7"
     inkscape:cx="159.11118"
     inkscape:cy="75.475936"
     inkscape:document-units="px"
     inkscape:current-layer="layer1"
     showgrid="false"
     inkscape:window-width="1111"
     inkscape:window-height="840"
     inkscape:window-x="191"
     inkscape:window-y="28"
     inkscape:window-maximized="0"
     fit-margin-top="0"
     fit-margin-left="0"
     fit-margin-right="0"
     fit-margin-bottom="0" />
  <defs
     id="defs4">
    <clipPath
       clipPathUnits="userSpaceOnUse"
       id="clipPath4617">
      <path
         sodipodi:type="arc"
         style="fill:#b3b3b3;stroke:none"
         id="path4619"
         sodipodi:cx="141.42857"
         sodipodi:cy="140.90877"
         sodipodi:rx="124.28571"
         sodipodi:ry="124.28571"
         d="m 265.71429,140.90877 a 124.28571,124.28571 0 1 1 -248.57143,0 124.28571,124.28571 0 1 1 248.57143,0 z"
         transform="translate(170.48656,275.14888)" />
    </clipPath>
  </defs>
  <metadata
     id="metadata7">
    <rdf:RDF>
      <cc:Work
         rdf:about="">
        <dc:format>image/svg+xml</dc:format>
        <dc:type
           rdf:resource="http://purl.org/dc/dcmitype/StillImage" />
      </cc:Work>
    </rdf:RDF>
  </metadata>
  <g
     inkscape:label="Layer 1"
     inkscape:groupmode="layer"
     id="layer1"
     transform="translate(-175.56216,-278.4604)">
    <path
       style="fill:#b3b3b3;stroke:none"
       d="m 322.90077,552.37609 c -0.8025,-1.03265 -4.1298,-6.77812 -7.394,-12.76771 -5.66062,-10.38686 -5.9349,-11.45971 -5.9349,-23.21429 0,-6.77827 -0.16071,-12.33471 -0.35714,-12.34764 -0.19643,-0.0129 -7.10714,-1.25351 -15.35714,-2.75686 -8.25,-1.50332 -15.42054,-2.29632 -15.93453,-1.7622 -0.51399,0.53413 -2.65068,5.852 -4.7482,11.8175 -3.29679,9.3763 -4.91271,11.81339 -11.92261,17.98135 -13.16776,11.58617 -12.78024,11.47418 -21.89865,6.32807 l -7.91867,-4.46902 2.59473,-13.70492 c 2.49374,-13.17148 2.90233,-14.05529 10.49705,-22.70579 4.34627,-4.95047 7.90231,-9.56676 7.90231,-10.2584 0,-1.47559 -18.31337,-23.80793 -20.06165,-24.4643 -0.65433,-0.24566 -6.31795,2.51133 -12.58583,6.12664 l -11.39614,6.57329 -13.13132,-0.41234 -13.13131,-0.41236 -3.2803,-8.73539 -3.28031,-8.7354 10.00696,-8.17517 c 10.84131,-8.85678 12.71635,-9.70148 27.21704,-12.26113 l 9.64286,-1.70214 0,-16.16553 0,-16.16553 -7.5,-1.47726 c -4.125,-0.81249 -9.8425,-1.8811 -12.70556,-2.37469 -3.46464,-0.5973 -8.76203,-3.85429 -15.83987,-9.73882 l -10.63432,-8.8414 3.17885,-8.52806 3.17886,-8.52805 13.60638,-0.40736 13.60637,-0.40735 10.9584,6.47878 c 6.02712,3.56333 11.38742,6.44805 11.91178,6.41048 1.07253,-0.0768 19.25751,-22.17096 20.00721,-24.30806 0.26531,-0.75631 -2.67819,-5.06316 -6.54112,-9.5708 -9.23405,-10.77518 -8.94789,-10.17209 -11.75184,-24.76724 l -2.43237,-12.66102 8.23066,-4.90297 8.23065,-4.90298 10.59272,9.07442 c 9.9688,8.53993 10.84458,9.77375 14.869,20.94783 2.78986,7.74624 4.97907,11.78706 6.2981,11.625 1.112,-0.13663 8.28967,-1.33754 15.95038,-2.66869 l 13.92857,-2.42028 0,-12.18641 c 0,-11.78521 0.21856,-12.59093 6.63887,-24.47416 3.65139,-6.75827 6.83678,-12.52672 7.07865,-12.81878 0.24187,-0.29206 4.61063,0.25596 9.70834,1.21783 10.34441,1.95186 9.29217,0.3446 12.39626,18.9345 1.53751,9.2079 1.41438,10.15238 -2.8655,21.98039 -2.45962,6.79749 -4.29177,12.48885 -4.07147,12.64746 4.71177,3.39226 27.103,15.17953 28.15202,14.81988 0.79829,-0.27369 4.84943,-4.58023 9.00255,-9.57008 6.9761,-8.38161 8.52263,-9.438 20.30933,-13.87272 l 12.75821,-4.80025 5.08923,5.87865 c 2.79907,3.23326 5.53904,6.62899 6.08881,7.54607 0.54977,0.91709 -2.04455,6.76442 -5.76518,12.99407 -6.19419,10.37126 -7.69156,11.86889 -17.75219,17.75522 -6.04307,3.53571 -11.0023,7.00724 -11.02051,7.71451 -0.0183,0.70726 2.31563,7.61798 5.18633,15.35714 3.61895,9.75638 5.91877,14.07069 7.5,14.06952 1.2543,-9.3e-4 6.9707,-0.89614 12.70311,-1.98936 10.42006,-1.9872 10.42577,-1.98654 23.57143,2.70176 l 13.14886,4.68944 0.41954,9.31679 0.41954,9.3168 -8.15887,3.05261 c -15.89207,5.94599 -18.87437,6.32689 -32.05681,4.0942 l -12.23376,-2.072 -5.26624,14.56129 c -2.89645,8.00871 -5.25595,15.12 -5.24333,15.80287 0.0128,0.68285 4.99475,3.99618 11.07143,7.36293 10.50011,5.81754 11.37924,6.70144 17.71197,17.80828 l 6.66347,11.68693 -2.7181,3.62029 c -1.49496,1.99115 -4.17209,5.33511 -5.94919,7.43102 l -3.23108,3.81075 -12.85165,-4.85782 c -10.57761,-3.99825 -13.73735,-5.93237 -17.85714,-10.93058 -2.75303,-3.34003 -6.61264,-7.82157 -8.57693,-9.959 l -3.57143,-3.88623 -13.57142,7.92583 c -7.46429,4.3592 -13.74919,8.09684 -13.96646,8.30585 -0.21727,0.20903 1.60376,5.7737 4.04673,12.36596 4.3249,11.67062 4.39808,12.26779 2.78221,22.70022 -2.66803,17.22532 -2.40288,16.70485 -9.04751,17.76102 -3.2768,0.52086 -7.29125,1.27903 -8.92097,1.68483 -1.62973,0.4058 -3.61975,-0.10714 -4.42225,-1.13973 l 0,0 z m 5.75622,-91.21091 c 40.6356,-15.20371 40.72047,-74.63235 0.12828,-89.86647 -11.6351,-4.36662 -28.19803,-3.77677 -38.37603,1.36669 -37.2726,18.83572 -35.50133,72.09244 2.92315,87.89042 10.85167,4.4616 24.40368,4.69537 35.32454,0.60936 l 6e-5,0 z"
       id="path4584"
       inkscape:connector-curvature="0"
       clip-path="url(#clipPath4617)" />
  </g>
</svg>
